<?xml version="1.0" encoding="UTF-8" standalone="no"?>
<!-- Created with Inkscape (http://www.inkscape.org/) -->

<svg
   id="svg2"
   sodipodi:docname="logo.svg"
   viewBox="0 0 734.45294 716.67133"
   version="1.1"
   inkscape:version="1.1.2 (0a00cf5339, 2022-02-04)"
   width="734.45294"
   height="716.67133"
   xmlns:inkscape="http://www.inkscape.org/namespaces/inkscape"
   xmlns:sodipodi="http://sodipodi.sourceforge.net/DTD/sodipodi-0.dtd"
   xmlns="http://www.w3.org/2000/svg"
   xmlns:svg="http://www.w3.org/2000/svg"
   xmlns:rdf="http://www.w3.org/1999/02/22-rdf-syntax-ns#"
   xmlns:cc="http://creativecommons.org/ns#"
   xmlns:dc="http://purl.org/dc/elements/1.1/">
  <defs
     id="defs91" />
  <sodipodi:namedview
     id="namedview4"
     bordercolor="#666666"
     inkscape:pageshadow="2"
     guidetolerance="10"
     pagecolor="#ffffff"
     gridtolerance="10"
     inkscape:window-maximized="1"
     inkscape:zoom="0.417193"
     objecttolerance="10"
     borderopacity="1"
     inkscape:current-layer="svg2"
     inkscape:cx="406.28678"
     inkscape:cy="264.86542"
     inkscape:window-y="0"
     inkscape:window-x="0"
     inkscape:window-width="1366"
     showgrid="false"
     inkscape:pageopacity="0"
     inkscape:window-height="704"
     inkscape:pagecheckerboard="0"
     fit-margin-top="0"
     fit-margin-left="0"
     fit-margin-right="0"
     fit-margin-bottom="0" />
  <path
     id="path3776"
     sodipodi:nodetypes="cccccc"
     style="fill:#445d70;stroke:#000000;stroke-width:1px"
     inkscape:connector-curvature="0"
     d="m 308.86068,18.341679 32.06,19.176 -18.876,19.176 -24.269,-28.764 8.9886,-8.9886 z" />
  <path
     id="path2987"
     style="fill:#43637b;stroke:#000000;stroke-width:1px"
     d="m 280.47068,0.50167908 c -2.62,0.043 -5.25,0.95500002 -7.87,3.75000002 l -22.16,30.7499999 3.66,3.187 -39.59,55.245 -4.44,-2.03 -155.029995,219.290001 8.06,5.53 -6.85,10 -10.28,0.93 -25.96,34 -3.69,1 -15.78000029,22.04 11.40000029,46.12 438.029995,283.44 c 11.02,5.86 17.55,0.49 22.19,-9.56 l 259.47,-420.69 c 5,-6.88 1.29,-11.27 -4.81,-14.97 l -389.38,-237.500001 c -1.98,6.499 -11.08,14.219 -20.65,6.686 -7.72,-5.621 -7.33,-12.653 -2.07,-20.531 l -24.15,-14.7189999 c -3.37,-0.629 -6.73,-2.02400002 -10.1,-1.96800002 z m 149.94,640.47000092 19.84,13.62 -15.78,23 -19.84,-13.62 z" />
  <path
     id="path3765"
     sodipodi:nodetypes="ccccccc"
     style="fill:none;stroke:#000000;stroke-width:0.8"
     inkscape:connector-curvature="0"
     d="m 202.94068,128.90368 54.83,-74.610001 c 2.2619,-3.3263 5.1461,-4.5792 6.292,-3.7453 1.0469,1.6151 0.0876,3.2302 -0.85817,4.8454 -18.515,26.44 -37.849,52.775001 -56.819,79.049001 l -6.1422,-2.397 z" />
  <path
     id="path2994"
     sodipodi:nodetypes="ccccc"
     style="fill:none;stroke:#000000;stroke-width:0.6"
     inkscape:connector-curvature="0"
     d="m 254.02068,38.116679 142.92,85.991001 c 6.485,3.1839 7.8052,12.277 5.0936,14.981 l -182.16,262.47 -63.52,-40.14" />
  <ellipse
     id="path2989"
     style="fill:none;stroke:#000000;stroke-width:0.999994;stroke-linecap:round;stroke-linejoin:round"
     transform="rotate(32.236354)"
     cx="307.58981"
     cy="324.41266"
     rx="10.381296"
     ry="12.731425" />
  <path
     id="path3761"
     style="fill:none;stroke:#000000;stroke-linecap:round;stroke-linejoin:round"
     d="m 23.128985,430.11128 c 1.4699,-5.8993 6.8033,-10.27 13.158,-10.27 7.4886,0 13.559,6.0707 13.559,13.559 0,2.9307 -0.77997,7.442 -3.4093,9.21"
     sodipodi:nodetypes="cssc"
     inkscape:connector-curvature="0" />
  <path
     id="path3764"
     sodipodi:nodetypes="ccccccc"
     style="fill:#000000;stroke:#000000;stroke-width:1px"
     inkscape:connector-curvature="0"
     d="m 709.15068,320.96368 -50.34,-32.36 c -4.4502,-2.8895 -11.794,-4.4317 -15.88,0.59924 l -205.54,319.69 c -1.9381,4.9189 -3.8094,7.4744 0.59924,14.681 l 59.625,39.55 z" />
  <path
     id="path3766"
     sodipodi:nodetypes="cccccsc"
     style="fill:none;stroke:#000000;stroke-width:0.8"
     inkscape:connector-curvature="0"
     d="m 571.88068,349.28368 46.398,-71.822 c 2.0488,-3.3464 4.579,-5.7055 8.2536,-5.7173 7.2958,0.0886 7.6663,8.3862 4.6701,12.709 l -47.034,76.695 c -5.8163,9.9374 -15.107,6.9233 -16.391,0.4415 -0.6997,-3.5331 1.0692,-7.4365 4.1027,-12.306 z" />
  <path
     id="path3775"
     d="m 451.75068,345.89368 c 0.8157,39.731 -36.978,77.302 -78.178,74.364 -38.165,-2.7216 -77.808,-38.223 -78.178,-76.483 -0.42373,-43.771 32.793,-70.618 70.975,-73.093 38.454,-2.4926 84.369,25.914 85.381,75.212 z"
     sodipodi:nodetypes="sssss"
     style="fill:#000000"
     inkscape:connector-curvature="0" />
  <path
     id="path3772"
     style="fill:#cdcdcd;stroke-width:0.95058"
     d="m 441.99929,343.77529 c 0,38.2618 -31.01742,69.27922 -69.27922,69.27922 -38.26179,0 -73.09295,-31.01742 -73.09295,-69.27922 0,-38.2618 34.83116,-69.27922 73.09295,-69.27922 38.2618,0 69.27922,31.01742 69.27922,69.27922 z"
     sodipodi:nodetypes="sssss"
     inkscape:connector-curvature="0" />
  <rect
     id="rect3768"
     style="fill:#000000;fill-rule:evenodd;stroke:#000000;stroke-width:1px"
     transform="rotate(-82.761)"
     ry="4.2372999"
     height="26.367001"
     width="26.367001"
     y="395.60419"
     x="-307.14426" />
  <rect
     id="rect3770"
     style="fill:#000000;fill-rule:evenodd;stroke:#000000;stroke-width:1px"
     transform="rotate(5.9062)"
     ry="4.2372999"
     height="29.237"
     width="47.306999"
     y="248.18204"
     x="391.80301" />
  <path
     id="path3781"
     style="fill:#d6d6d6"
     d="M 210.16068,90.783679 55.070685,311.06368 l 144.119995,89 c 8.56,4.8 15.31,5.47 21.56,-2.69 l 135.22,-200.4 c 4.46,-6.73 7.19,-13.64 -5.06,-22.04 z m 8.66,18.190001 c 0.81,0.03 1.63,0.32 2.34,0.84 l 4.13,3 c 1.89,1.39 2.29,4.01 0.9,5.91 l -7.94,10.87 c -1.38,1.9 -4.04,2.29 -5.93,0.91 l -4.1,-3 c -1.89,-1.39 -2.32,-4.01 -0.93,-5.91 l 7.96,-10.87 c 0.87,-1.19 2.21,-1.81 3.57,-1.75 z" />
  <path
     id="path3777"
     sodipodi:nodetypes="ccccccccccc"
     style="fill:#43637b;stroke:#000000;stroke-width:0.8"
     inkscape:connector-curvature="0"
     d="m 109.16068,264.54368 7.6271,4.2373 -10.805,13.983 c -2.5756,2.749 -3.0077,5.3321 0,7.2034 l 121.39,75.43 37.72,-57.21 -119.07,-73.3 c -3.5484,-2.393 -5.1748,-1.3165 -5.9322,0 l -11.229,15.678 -6.5678,-3.8136 z" />
  <rect
     id="rect3784"
     ry="4.1718001"
     style="fill:none;stroke:#000000;stroke-width:0.39382"
     transform="rotate(-53.827)"
     height="13.35"
     width="21.6"
     y="239.29776"
     x="20.078323" />
  <path
     id="path3769"
     sodipodi:nodetypes="cccccc"
     style="fill:none;stroke:#000000;stroke-width:1px"
     inkscape:connector-curvature="0"
     d="m 492.52068,671.81368 -62.921,-43.445 c -6.3895,-5.4927 -5.0376,-10.744 -2.9962,-13.783 l 210.04,-329.29 c 6.9636,-8.9164 12.806,-6.2526 17.378,-4.7939 l 57.527,35.056" />
  <ellipse
     id="path3773"
     style="fill:none;stroke:#000000;stroke-width:1.00039;stroke-linecap:round;stroke-linejoin:round"
     transform="matrix(-0.83467827,0.55073785,0.51620854,0.85646292,0,0)"
     cx="-262.52866"
     cy="248.21956"
     rx="8.9806604"
     ry="8.830677" />
  <path
     id="path3778"
     sodipodi:nodetypes="ccccc"
     style="fill:#000000"
     inkscape:connector-curvature="0"
     d="m 23.920685,428.89368 c 8.577,-6.2688 16.094,-3.4751 25.318,1.8726 -1.5117,-6.0939 -3.6938,-7.2638 -8.8388,-10.187 -2.3615,-0.87718 -4.9022,-1.4856 -8.8388,0 -4.3095,2.5729 -5.7336,3.9563 -7.6404,8.3145 z" />
  <path
     id="path3780"
     sodipodi:nodetypes="cccccccccccc"
     style="fill:#000000"
     inkscape:connector-curvature="0"
     d="m 83.950685,428.31368 c 10.76,4.1896 3.6674,19.279 -3.072,20.869 l 3.3898,1.589 4.661,-0.74153 4.661,-2.6483 3.072,-4.2373 1.9068,-5.6144 -1.3771,-6.3559 -2.9661,-3.6017 -4.8729,-1.0593 -4.4492,0.84746 z" />
  <path
     id="path3782"
     sodipodi:nodetypes="cccccccsc"
     style="fill:#000000"
     inkscape:connector-curvature="0"
     d="m 341.81068,61.483679 c 11.257,0.84906 9.5203,10.469 1.9475,14.981 l 5.3932,0.44943 3.5955,-2.0974 2.9962,-3.146 0.14981,-5.0936 -1.3483,-3.4456 c -0.81852,-0.95942 -1.7337,-1.8215 -2.728,-2.4965 -2.8288,-1.9202 -6.2983,-2.3261 -10.006,0.84855 z" />
  <metadata
     id="metadata88">
    <rdf:RDF>
      <cc:Work>
        <dc:format>image/svg+xml</dc:format>
        <dc:type
           rdf:resource="http://purl.org/dc/dcmitype/StillImage" />
        <cc:license
           rdf:resource="http://creativecommons.org/publicdomain/zero/1.0/" />
        <dc:publisher>
          <cc:Agent
             rdf:about="http://openclipart.org/">
            <dc:title>Openclipart</dc:title>
          </cc:Agent>
        </dc:publisher>
        <dc:title>Diskette</dc:title>
        <dc:date>2012-10-27T18:17:19</dc:date>
        <dc:description>this a classic diskette to computer</dc:description>
        <dc:source>https://openclipart.org/detail/172911/diskette-by-jakoriginal-172911</dc:source>
        <dc:creator>
          <cc:Agent>
            <dc:title>JAKoriginal</dc:title>
          </cc:Agent>
        </dc:creator>
        <dc:subject>
          <rdf:Bag>
            <rdf:li>Retro</rdf:li>
            <rdf:li>Tecnologic</rdf:li>
            <rdf:li>computer</rdf:li>
            <rdf:li>info</rdf:li>
          </rdf:Bag>
        </dc:subject>
      </cc:Work>
      <cc:License
         rdf:about="http://creativecommons.org/licenses/publicdomain/">
        <cc:permits
           rdf:resource="http://creativecommons.org/ns#Reproduction" />
        <cc:permits
           rdf:resource="http://creativecommons.org/ns#Distribution" />
        <cc:permits
           rdf:resource="http://creativecommons.org/ns#DerivativeWorks" />
      </cc:License>
    </rdf:RDF>
  </metadata>
</svg>
